<svg width="209" height="75" viewBox="0 0 209 75" fill="none" xmlns="http://www.w3.org/2000/svg">
  <path d="M8.976 36.712C8.976 37.3573 8.756 37.9 8.316 38.34C7.90533 38.78 7.36267 39 6.688 39C6.04267 39 5.5 38.78 5.06 38.34C4.62 37.9 4.4 37.3573 4.4 36.712V6.924C4.4 6.24933 4.62 5.70667 5.06 5.296C5.5 4.856 6.04267 4.636 6.688 4.636H30.096C30.7707 4.636 31.3133 4.856 31.724 5.296C32.164 5.70667 32.384 6.24933 32.384 6.924V36.712C32.384 37.3573 32.164 37.9 31.724 38.34C31.3133 38.78 30.7707 39 30.096 39C29.4507 39 28.908 38.78 28.468 38.34C28.028 37.9 27.808 37.3573 27.808 36.712V8.684H8.976V36.712ZM51.6532 14.756C53.9706 14.756 56.0386 15.284 57.8573 16.34C59.7052 17.3667 61.1426 18.804 62.1693 20.652C63.2252 22.5 63.7532 24.612 63.7532 26.988C63.7532 29.3347 63.2399 31.432 62.2133 33.28C61.1866 35.128 59.7492 36.58 57.9012 37.636C56.0826 38.6627 53.9999 39.176 51.6532 39.176C49.3066 39.176 47.2092 38.6627 45.3612 37.636C43.5132 36.58 42.0759 35.128 41.0493 33.28C40.0226 31.432 39.5092 29.3347 39.5092 26.988C39.5092 24.612 40.0226 22.5 41.0493 20.652C42.0759 18.804 43.5132 17.3667 45.3612 16.34C47.2092 15.284 49.3066 14.756 51.6532 14.756ZM51.6532 18.716C50.1573 18.716 48.8079 19.068 47.6053 19.772C46.4319 20.476 45.5079 21.4587 44.8332 22.72C44.1586 23.9813 43.8212 25.404 43.8212 26.988C43.8212 28.572 44.1586 29.9947 44.8332 31.256C45.5079 32.488 46.4319 33.456 47.6053 34.16C48.8079 34.864 50.1573 35.216 51.6532 35.216C53.1492 35.216 54.4839 34.864 55.6572 34.16C56.8599 33.456 57.7839 32.488 58.4293 31.256C59.1039 29.9947 59.4412 28.572 59.4412 26.988C59.4412 25.404 59.1039 23.9813 58.4293 22.72C57.7839 21.4587 56.8599 20.476 55.6572 19.772C54.4839 19.068 53.1492 18.716 51.6532 18.716ZM90.5407 36.096C90.6873 36.4773 90.7607 36.7853 90.7607 37.02C90.7607 37.4013 90.658 37.7387 90.4527 38.032C90.2473 38.3253 89.954 38.5453 89.5727 38.692C89.074 38.8973 88.678 39 88.3847 39C87.6807 39 87.1233 38.604 86.7127 37.812L79.5407 21.532L72.1487 37.812C71.7673 38.604 71.1953 39 70.4327 39C70.0513 39 69.67 38.8973 69.2887 38.692C68.438 38.252 68.0127 37.6947 68.0127 37.02C68.0127 36.6973 68.086 36.3893 68.2327 36.096L77.3407 16.428C77.5753 15.9 77.854 15.5333 78.1767 15.328C78.5287 15.0933 78.954 14.976 79.4527 14.976C80.362 14.976 81.0367 15.46 81.4767 16.428L90.5407 36.096ZM116.497 14.932C117.142 14.932 117.656 15.1373 118.037 15.548C118.448 15.9587 118.653 16.5013 118.653 17.176V36.756C118.653 37.4307 118.448 37.9733 118.037 38.384C117.656 38.7947 117.142 39 116.497 39C115.852 39 115.309 38.7947 114.869 38.384C114.458 37.944 114.253 37.4013 114.253 36.756V28.484H100.657V36.756C100.657 37.4013 100.452 37.944 100.041 38.384C99.6302 38.7947 99.0875 39 98.4129 39C97.7675 39 97.2395 38.7947 96.8289 38.384C96.4475 37.9733 96.2569 37.4307 96.2569 36.756V17.176C96.2569 16.5013 96.4475 15.9587 96.8289 15.548C97.2395 15.1373 97.7675 14.932 98.4129 14.932C99.0875 14.932 99.6302 15.1373 100.041 15.548C100.452 15.9587 100.657 16.5013 100.657 17.176V24.524H114.253V17.176C114.253 16.5013 114.458 15.9587 114.869 15.548C115.309 15.1373 115.852 14.932 116.497 14.932ZM137.109 22.104C139.954 22.104 142.242 22.8373 143.973 24.304C145.703 25.7707 146.569 27.8093 146.569 30.42C146.569 33.236 145.659 35.4507 143.841 37.064C142.022 38.648 139.631 39.44 136.669 39.44C134.703 39.44 132.958 39.0293 131.433 38.208C129.907 37.3573 128.719 36.1987 127.869 34.732C127.018 33.2653 126.593 31.5933 126.593 29.716V17.132C126.651 16.4867 126.886 15.9587 127.297 15.548C127.707 15.1373 128.221 14.932 128.837 14.932C129.511 14.932 130.054 15.1373 130.465 15.548C130.875 15.9587 131.081 16.5013 131.081 17.176V22.104H137.109ZM150.397 17.176C150.397 16.5013 150.602 15.9587 151.013 15.548C151.453 15.1373 151.995 14.932 152.641 14.932C153.315 14.932 153.858 15.1373 154.269 15.548C154.679 15.9587 154.885 16.5013 154.885 17.176V36.756C154.885 37.4013 154.679 37.944 154.269 38.384C153.858 38.7947 153.315 39 152.641 39C151.995 39 151.453 38.7947 151.013 38.384C150.602 37.944 150.397 37.4013 150.397 36.756V17.176ZM131.081 29.628C131.081 31.2707 131.594 32.62 132.621 33.676C133.677 34.732 135.026 35.26 136.669 35.26C138.37 35.26 139.719 34.8493 140.717 34.028C141.743 33.2067 142.257 32.004 142.257 30.42C142.257 28.924 141.787 27.7947 140.849 27.032C139.91 26.2693 138.663 25.888 137.109 25.888H131.081V29.628ZM182.659 14.888C183.334 14.888 183.877 15.0933 184.287 15.504C184.698 15.9147 184.903 16.4573 184.903 17.132V36.756C184.903 37.4013 184.698 37.944 184.287 38.384C183.877 38.7947 183.334 39 182.659 39C182.014 39 181.471 38.7947 181.031 38.384C180.621 37.944 180.415 37.4013 180.415 36.756V36.272C179.477 37.2107 178.362 37.944 177.071 38.472C175.781 38.9707 174.402 39.22 172.935 39.22C170.911 39.22 169.093 38.78 167.479 37.9C165.866 37.02 164.605 35.744 163.695 34.072C162.786 32.3707 162.331 30.332 162.331 27.956V17.132C162.331 16.4867 162.537 15.9587 162.947 15.548C163.387 15.108 163.93 14.888 164.575 14.888C165.221 14.888 165.749 15.108 166.159 15.548C166.599 15.9587 166.819 16.4867 166.819 17.132V27.956C166.819 30.332 167.45 32.136 168.711 33.368C170.002 34.5707 171.703 35.172 173.815 35.172C175.047 35.172 176.162 34.9227 177.159 34.424C178.186 33.9253 178.978 33.2507 179.535 32.4C180.122 31.5493 180.415 30.596 180.415 29.54V17.132C180.415 16.4573 180.621 15.9147 181.031 15.504C181.471 15.0933 182.014 14.888 182.659 14.888ZM167.875 3.712C168.433 3.712 168.902 3.91733 169.283 4.328C169.665 4.73867 169.855 5.252 169.855 5.868C169.855 6.63067 170.237 7.26133 170.999 7.76C171.762 8.25867 172.715 8.508 173.859 8.508C175.003 8.508 175.957 8.25867 176.719 7.76C177.482 7.26133 177.863 6.63067 177.863 5.868C177.863 5.252 178.054 4.73867 178.435 4.328C178.817 3.91733 179.286 3.712 179.843 3.712C180.401 3.712 180.87 3.91733 181.251 4.328C181.633 4.73867 181.823 5.252 181.823 5.868C181.823 6.95333 181.471 7.95067 180.767 8.86C180.093 9.76933 179.139 10.488 177.907 11.016C176.705 11.5147 175.355 11.764 173.859 11.764C172.363 11.764 170.999 11.5147 169.767 11.016C168.565 10.488 167.611 9.76933 166.907 8.86C166.233 7.95067 165.895 6.95333 165.895 5.868C165.895 5.252 166.086 4.73867 166.467 4.328C166.849 3.91733 167.318 3.712 167.875 3.712Z" transform="translate(-4 -3)" fill="white"/>
  <path d="M23.628 35.744C24.0093 36.184 24.2 36.624 24.2 37.064C24.2 37.5627 23.9653 38.032 23.496 38.472C23.1147 38.824 22.5867 39 21.912 39C21.2373 39 20.6947 38.7947 20.284 38.384L11.22 28.66H8.36V36.8C8.36 37.4453 8.14 37.988 7.7 38.428C7.28933 38.8387 6.74667 39.044 6.072 39.044C5.42667 39.044 4.91333 38.8387 4.532 38.428C4.15067 38.0173 3.96 37.4747 3.96 36.8V17.176C3.96 16.5013 4.15067 15.9587 4.532 15.548C4.91333 15.1373 5.42667 14.932 6.072 14.932C6.74667 14.932 7.28933 15.152 7.7 15.592C8.14 16.0027 8.36 16.5307 8.36 17.176V24.524H11.704L19.668 15.636C20.108 15.1667 20.724 14.932 21.516 14.932C22.132 14.932 22.5867 15.0787 22.88 15.372C23.3787 15.8707 23.628 16.3987 23.628 16.956C23.628 17.3667 23.4667 17.7627 23.144 18.144L15.18 26.68L23.628 35.744ZM47.3629 14.932C48.0376 15.2547 48.3749 15.812 48.3749 16.604C48.3749 16.9853 48.2869 17.3813 48.1109 17.792L37.5069 41.552C36.4216 43.9867 35.0576 45.9227 33.4149 47.36C31.8016 48.8267 30.1002 49.56 28.3109 49.56C27.1669 49.56 26.0962 49.2667 25.0989 48.68C24.6589 48.4453 24.3216 48.152 24.0869 47.8C23.8522 47.448 23.7349 47.0813 23.7349 46.7C23.7349 46.3187 23.8522 45.9667 24.0869 45.644C24.5562 44.9987 25.1136 44.676 25.7589 44.676C26.1989 44.676 26.5949 44.7933 26.9469 45.028C27.5629 45.38 28.1496 45.556 28.7069 45.556C30.4962 45.556 32.2562 43.6347 33.9869 39.792L35.3949 36.58L25.5389 17.836C25.3922 17.572 25.3189 17.264 25.3189 16.912C25.3189 16.5307 25.4362 16.1787 25.6709 15.856C25.9056 15.5333 26.2136 15.284 26.5949 15.108C26.8589 14.9907 27.1522 14.932 27.4749 14.932C27.8562 14.932 28.2082 15.0493 28.5309 15.284C28.8536 15.4893 29.1176 15.7827 29.3229 16.164L37.4189 32.048L44.5029 16.032C44.7082 15.6213 44.9722 15.2987 45.2949 15.064C45.6469 14.8293 46.0282 14.712 46.4389 14.712C46.7029 14.712 47.0109 14.7853 47.3629 14.932ZM65.0444 14.756C67.303 14.756 69.3564 15.2987 71.2044 16.384C73.0817 17.44 74.5484 18.9067 75.6044 20.784C76.6604 22.632 77.1884 24.7 77.1884 26.988C77.1884 29.276 76.6897 31.3587 75.6924 33.236C74.7244 35.084 73.375 36.536 71.6444 37.592C69.943 38.648 68.0364 39.176 65.9244 39.176C64.223 39.176 62.639 38.824 61.1724 38.12C59.7057 37.416 58.459 36.4333 57.4324 35.172V47.052C57.4324 47.7267 57.227 48.2693 56.8164 48.68C56.4057 49.0907 55.863 49.296 55.1884 49.296C54.543 49.296 54.0004 49.0907 53.5604 48.68C53.1497 48.2693 52.9444 47.7267 52.9444 47.052V26.988C52.9444 24.7 53.4724 22.632 54.5284 20.784C55.6137 18.9067 57.0657 17.44 58.8844 16.384C60.7324 15.2987 62.7857 14.756 65.0444 14.756ZM65.0444 35.216C66.511 35.216 67.831 34.864 69.0044 34.16C70.207 33.4267 71.1457 32.444 71.8204 31.212C72.5244 29.9507 72.8764 28.5427 72.8764 26.988C72.8764 25.4333 72.5244 24.0253 71.8204 22.764C71.1457 21.5027 70.207 20.52 69.0044 19.816C67.831 19.0827 66.511 18.716 65.0444 18.716C63.5777 18.716 62.243 19.0827 61.0404 19.816C59.867 20.52 58.943 21.5027 58.2684 22.764C57.5937 24.0253 57.2564 25.4333 57.2564 26.988C57.2564 28.5427 57.5937 29.9507 58.2684 31.212C58.943 32.444 59.867 33.4267 61.0404 34.16C62.243 34.864 63.5777 35.216 65.0444 35.216ZM94.5739 14.756C98.0352 14.756 100.91 16.076 103.198 18.716C103.491 19.0387 103.638 19.42 103.638 19.86C103.638 20.5053 103.315 21.048 102.67 21.488C102.377 21.6933 102.039 21.796 101.658 21.796C100.983 21.796 100.411 21.532 99.9419 21.004C99.2085 20.212 98.4019 19.64 97.5219 19.288C96.6712 18.9067 95.6885 18.716 94.5739 18.716C92.3152 18.716 90.4819 19.4787 89.0739 21.004C87.6659 22.5 86.9619 24.4947 86.9619 26.988C86.9619 28.572 87.2845 29.9947 87.9299 31.256C88.6045 32.488 89.5285 33.456 90.7019 34.16C91.9045 34.864 93.2685 35.216 94.7939 35.216C96.7885 35.216 98.4019 34.7027 99.6339 33.676C100.191 33.2653 100.734 33.06 101.262 33.06C101.673 33.06 102.054 33.192 102.406 33.456C102.963 33.9253 103.242 34.4533 103.242 35.04C103.242 35.48 103.066 35.876 102.714 36.228C100.602 38.1933 97.9619 39.176 94.7939 39.176C92.4765 39.176 90.3939 38.648 88.5459 37.592C86.6979 36.536 85.2459 35.084 84.1899 33.236C83.1632 31.3587 82.6499 29.276 82.6499 26.988C82.6499 24.6413 83.1485 22.544 84.1459 20.696C85.1725 18.8187 86.5952 17.3667 88.4139 16.34C90.2325 15.284 92.2859 14.756 94.5739 14.756Z" transform="translate(105 25)" fill="white"/>
</svg>
